<svg xmlns="http://www.w3.org/2000/svg" xmlns:xlink="http://www.w3.org/1999/xlink" width="350" zoomAndPan="magnify" viewBox="0 0 262.5 149.999998" height="200" preserveAspectRatio="xMidYMid meet" version="1.0"><defs><g/></defs><g fill="#253439" fill-opacity="1"><g transform="translate(2.629804, 108.767145)"><g><path d="M 105.46875 -91.578125 C 110.226562 -87.203125 111.644531 -81.929688 109.71875 -75.765625 C 109.363281 -74.691406 108.914062 -73.648438 108.375 -72.640625 C 107.382812 -70.847656 106.25 -69.164062 104.96875 -67.59375 C 103.695312 -66.03125 102.347656 -64.535156 100.921875 -63.109375 C 99.960938 -62.097656 98.835938 -61.753906 97.546875 -62.078125 C 97.191406 -62.117188 96.957031 -62.300781 96.84375 -62.625 C 96.78125 -62.945312 96.867188 -63.210938 97.109375 -63.421875 C 99.429688 -65.671875 101.472656 -68.160156 103.234375 -70.890625 C 104.484375 -72.703125 105.394531 -74.664062 105.96875 -76.78125 C 107.363281 -82.5 105.789062 -87.210938 101.25 -90.921875 C 99.113281 -92.609375 96.71875 -93.796875 94.0625 -94.484375 C 91.5625 -95.148438 89.050781 -95.582031 86.53125 -95.78125 C 84.007812 -95.988281 81.472656 -96.003906 78.921875 -95.828125 C 75.046875 -95.597656 71.191406 -95.144531 67.359375 -94.46875 C 63.535156 -93.789062 59.726562 -92.988281 55.9375 -92.0625 C 51 -90.84375 46.148438 -89.347656 41.390625 -87.578125 C 36.640625 -85.804688 32.03125 -83.703125 27.5625 -81.265625 C 23.238281 -78.941406 19.234375 -76.15625 15.546875 -72.90625 C 12.265625 -70.007812 9.566406 -66.628906 7.453125 -62.765625 C 4.742188 -57.628906 4.972656 -52.625 8.140625 -47.75 C 10.160156 -44.820312 12.554688 -42.226562 15.328125 -39.96875 C 19.648438 -36.394531 24.207031 -33.179688 29 -30.328125 C 33.050781 -27.898438 37.09375 -25.507812 41.125 -23.15625 C 43.800781 -21.613281 46.46875 -20.054688 49.125 -18.484375 C 51.019531 -17.367188 52.875 -16.222656 54.6875 -15.046875 C 56.507812 -13.867188 58.285156 -12.597656 60.015625 -11.234375 C 61.054688 -10.378906 62.203125 -10.171875 63.453125 -10.609375 C 67.742188 -11.859375 72.097656 -12.75 76.515625 -13.28125 C 76.660156 -13.28125 76.804688 -13.296875 76.953125 -13.328125 C 77.960938 -13.515625 78.945312 -13.515625 79.90625 -13.328125 C 80.144531 -13.265625 80.351562 -13.148438 80.53125 -12.984375 C 80.71875 -12.828125 80.8125 -12.585938 80.8125 -12.265625 C 80.8125 -11.941406 80.710938 -11.695312 80.515625 -11.53125 C 80.316406 -11.363281 80.097656 -11.28125 79.859375 -11.28125 C 78.316406 -11.25 76.8125 -11.09375 75.34375 -10.8125 C 73.882812 -10.53125 72.4375 -10.207031 71 -9.84375 C 69.851562 -9.550781 68.726562 -9.300781 67.625 -9.09375 C 67.476562 -9.0625 67.335938 -9.03125 67.203125 -9 C 66.671875 -8.914062 66.144531 -8.785156 65.625 -8.609375 C 65.101562 -8.429688 64.644531 -8.160156 64.25 -7.796875 C 64.53125 -7.085938 64.921875 -6.503906 65.421875 -6.046875 C 65.628906 -5.785156 65.84375 -5.515625 66.0625 -5.234375 C 66.957031 -4.054688 67.734375 -2.832031 68.390625 -1.5625 C 69.054688 -0.289062 69.554688 1.054688 69.890625 2.484375 C 70.671875 6.171875 69.46875 9.015625 66.28125 11.015625 C 65.207031 11.648438 64.085938 12.1875 62.921875 12.625 C 58.753906 14.125 54.476562 14.75 50.09375 14.5 C 48.375 14.382812 46.765625 13.957031 45.265625 13.21875 C 43.210938 12.144531 41.863281 10.640625 41.21875 8.703125 C 40.582031 6.765625 40.769531 4.765625 41.78125 2.703125 C 42.457031 1.367188 43.351562 0.222656 44.46875 -0.734375 C 45.863281 -1.984375 47.351562 -3.097656 48.9375 -4.078125 C 50.519531 -5.066406 52.15625 -5.972656 53.84375 -6.796875 C 54.5625 -7.160156 55.257812 -7.519531 55.9375 -7.875 C 56.300781 -8.050781 56.660156 -8.226562 57.015625 -8.40625 C 57.046875 -8.800781 56.976562 -9.101562 56.8125 -9.3125 C 56.65625 -9.519531 56.472656 -9.695312 56.265625 -9.84375 C 56.179688 -9.875 56.109375 -9.929688 56.046875 -10.015625 C 53.148438 -12.222656 50.125 -14.238281 46.96875 -16.0625 C 43.15625 -18.320312 39.3125 -20.554688 35.4375 -22.765625 C 33.832031 -23.691406 32.222656 -24.644531 30.609375 -25.625 C 25.035156 -28.84375 19.675781 -32.375 14.53125 -36.21875 C 11.34375 -38.59375 8.46875 -41.273438 5.90625 -44.265625 C 4.644531 -45.804688 3.585938 -47.472656 2.734375 -49.265625 C 0.910156 -53.078125 0.726562 -57.007812 2.1875 -61.0625 C 2.9375 -63.144531 3.9375 -65.066406 5.1875 -66.828125 C 6.4375 -68.585938 7.820312 -70.253906 9.34375 -71.828125 C 12.695312 -75.304688 16.40625 -78.273438 20.46875 -80.734375 C 27.226562 -84.890625 34.363281 -88.222656 41.875 -90.734375 C 51.25 -93.867188 60.828125 -96.101562 70.609375 -97.4375 C 74.015625 -97.882812 77.425781 -98.148438 80.84375 -98.234375 C 84.257812 -98.328125 87.664062 -98.109375 91.0625 -97.578125 C 93.09375 -97.296875 95.0625 -96.867188 96.96875 -96.296875 C 98.882812 -95.722656 100.71875 -94.898438 102.46875 -93.828125 C 103.539062 -93.140625 104.539062 -92.390625 105.46875 -91.578125 Z M 60.703125 -5.65625 C 60.128906 -6.238281 59.46875 -6.328125 58.71875 -5.921875 C 56.820312 -5.078125 54.988281 -4.125 53.21875 -3.0625 C 51.457031 -2.007812 49.773438 -0.816406 48.171875 0.515625 C 47.304688 1.265625 46.585938 2.132812 46.015625 3.125 C 44.941406 5.164062 44.820312 7.0625 45.65625 8.8125 C 46.5 10.5625 48.050781 11.640625 50.3125 12.046875 C 50.84375 12.109375 51.320312 12.15625 51.75 12.1875 C 51.894531 12.1875 52.015625 12.1875 52.109375 12.1875 C 55.554688 12.09375 58.6875 11.394531 61.5 10.09375 C 65.007812 8.59375 66.285156 6 65.328125 2.3125 C 64.921875 0.789062 64.316406 -0.625 63.515625 -1.9375 C 62.710938 -3.25 61.773438 -4.488281 60.703125 -5.65625 Z M 60.703125 -5.65625 "/></g></g></g><g fill="#253439" fill-opacity="1"><g transform="translate(81.027982, 108.767145)"><g><path d="M 27.578125 -12.53125 C 27.128906 -11.164062 26.242188 -9.597656 24.921875 -7.828125 C 23.597656 -6.066406 21.941406 -4.9375 19.953125 -4.4375 C 17.972656 -3.9375 16.257812 -4.003906 14.8125 -4.640625 C 13.375 -5.285156 12.582031 -7.003906 12.4375 -9.796875 C 10.789062 -6.609375 9.222656 -4.566406 7.734375 -3.671875 C 6.253906 -2.785156 4.707031 -2.445312 3.09375 -2.65625 C 1.269531 -2.945312 0.0390625 -3.648438 -0.59375 -4.765625 C -1.238281 -5.890625 -1.453125 -7.1875 -1.234375 -8.65625 C -1.023438 -10.132812 -0.582031 -11.546875 0.09375 -12.890625 C 0.632812 -13.898438 1.378906 -14.832031 2.328125 -15.6875 C 3.273438 -16.550781 4.269531 -17.226562 5.3125 -17.71875 C 6.59375 -18.375 7.882812 -18.679688 9.1875 -18.640625 C 10.488281 -18.609375 11.878906 -18.179688 13.359375 -17.359375 C 13.390625 -17.328125 13.40625 -17.359375 13.40625 -17.453125 C 13.40625 -17.597656 13.441406 -17.78125 13.515625 -18 C 13.585938 -18.21875 13.710938 -18.394531 13.890625 -18.53125 C 14.378906 -18.882812 14.957031 -19.0625 15.625 -19.0625 C 16.289062 -19.0625 16.800781 -18.726562 17.15625 -18.0625 C 17.226562 -17.195312 17.140625 -16.097656 16.890625 -14.765625 C 16.359375 -11.847656 16.359375 -9.742188 16.890625 -8.453125 C 17.429688 -7.171875 18.378906 -6.570312 19.734375 -6.65625 C 21.085938 -6.75 22.84375 -8.09375 25 -10.6875 C 27.164062 -13.28125 28.023438 -13.894531 27.578125 -12.53125 Z M 3.578125 -5.65625 C 4.328125 -5.113281 5.1875 -5.179688 6.15625 -5.859375 C 7.125 -6.546875 8.050781 -7.515625 8.9375 -8.765625 C 9.832031 -10.023438 10.582031 -11.28125 11.1875 -12.53125 C 11.800781 -13.78125 12.144531 -14.707031 12.21875 -15.3125 C 10.394531 -16.28125 8.832031 -16.441406 7.53125 -15.796875 C 6.226562 -15.160156 5.191406 -14.113281 4.421875 -12.65625 C 3.648438 -11.207031 3.191406 -9.796875 3.046875 -8.421875 C 2.898438 -7.046875 3.078125 -6.125 3.578125 -5.65625 Z M 3.578125 -5.65625 "/></g></g></g><g fill="#253439" fill-opacity="1"><g transform="translate(106.868177, 108.767145)"><g><path d="M 12.640625 -9.890625 C 12.140625 -8.859375 11.285156 -7.707031 10.078125 -6.4375 C 8.867188 -5.164062 7.492188 -4.359375 5.953125 -4.015625 C 4.421875 -3.679688 2.957031 -4.210938 1.5625 -5.609375 C 1.019531 -6.222656 0.625 -6.929688 0.375 -7.734375 C 0.125 -8.546875 0.03125 -9.335938 0.09375 -10.109375 C 0.09375 -10.328125 0.09375 -10.597656 0.09375 -10.921875 C 0.09375 -11.742188 0.128906 -12.703125 0.203125 -13.796875 C 0.273438 -14.890625 0.4375 -15.875 0.6875 -16.75 C 0.945312 -17.625 1.34375 -18.148438 1.875 -18.328125 C 3.414062 -18.722656 4.253906 -18.1875 4.390625 -16.71875 C 4.390625 -16.25 4.375 -15.78125 4.34375 -15.3125 C 4.3125 -15.0625 4.296875 -14.832031 4.296875 -14.625 C 4.253906 -13.945312 4.21875 -13.265625 4.1875 -12.578125 C 4.1875 -12.046875 4.164062 -11.507812 4.125 -10.96875 C 4.09375 -8.613281 4.617188 -7.210938 5.703125 -6.765625 C 6.796875 -6.316406 8.039062 -6.789062 9.4375 -8.1875 C 10.832031 -9.582031 11.742188 -10.742188 12.171875 -11.671875 C 12.609375 -12.597656 12.921875 -12.789062 13.109375 -12.25 C 13.304688 -11.71875 13.148438 -10.929688 12.640625 -9.890625 Z M 4.078125 -23.359375 C 3.859375 -23.171875 3.597656 -23.050781 3.296875 -23 C 3.003906 -22.957031 2.742188 -22.984375 2.515625 -23.078125 C 2.335938 -23.222656 2.222656 -23.414062 2.171875 -23.65625 C 2.117188 -23.894531 2.09375 -24.175781 2.09375 -24.5 C 2.09375 -24.5625 2.109375 -24.625 2.140625 -24.6875 C 2.171875 -24.976562 2.242188 -25.273438 2.359375 -25.578125 C 2.691406 -26.347656 3.367188 -26.703125 4.390625 -26.640625 C 4.742188 -26.585938 5.019531 -26.441406 5.21875 -26.203125 C 5.425781 -25.960938 5.472656 -25.675781 5.359375 -25.34375 C 5.117188 -24.550781 4.691406 -23.890625 4.078125 -23.359375 Z M 4.078125 -23.359375 "/></g></g></g><g fill="#253439" fill-opacity="1"><g transform="translate(118.837551, 108.767145)"><g><path d="M 25.515625 -9.359375 C 23.617188 -6.941406 21.847656 -5.378906 20.203125 -4.671875 C 18.566406 -3.972656 17.082031 -3.800781 15.75 -4.15625 C 14.425781 -4.519531 13.28125 -5.101562 12.3125 -5.90625 C 11.351562 -6.71875 10.644531 -7.40625 10.1875 -7.96875 C 10.007812 -8.144531 9.878906 -8.269531 9.796875 -8.34375 C 11.015625 -6.457031 11.867188 -3.992188 12.359375 -0.953125 C 12.847656 2.085938 12.835938 4.753906 12.328125 7.046875 C 11.859375 8.765625 10.945312 9.832031 9.59375 10.25 C 8.238281 10.675781 6.828125 10.335938 5.359375 9.234375 C 4.503906 8.484375 3.820312 7.59375 3.3125 6.5625 C 2.445312 4.882812 1.804688 3.132812 1.390625 1.3125 C 0.703125 -1.300781 0.257812 -3.945312 0.0625 -6.625 C -0.125 -9.3125 -0.1875 -12.007812 -0.125 -14.71875 C 0.0195312 -18.625 0.410156 -22.488281 1.046875 -26.3125 C 1.691406 -30.132812 2.535156 -33.941406 3.578125 -37.734375 C 4.203125 -40.171875 5.066406 -43.003906 6.171875 -46.234375 C 7.273438 -49.472656 8.640625 -52.554688 10.265625 -55.484375 C 11.890625 -58.421875 13.789062 -60.671875 15.96875 -62.234375 C 16.90625 -62.910156 17.945312 -63.359375 19.09375 -63.578125 C 22.007812 -64.046875 24.078125 -63.695312 25.296875 -62.53125 C 26.515625 -61.375 27.0625 -59.632812 26.9375 -57.3125 C 26.820312 -54.988281 26.242188 -52.3125 25.203125 -49.28125 C 24.160156 -46.257812 22.84375 -43.140625 21.25 -39.921875 C 19.65625 -36.703125 18.007812 -33.609375 16.3125 -30.640625 C 14.613281 -27.679688 13.039062 -25.082031 11.59375 -22.84375 C 10.15625 -20.613281 9.046875 -18.976562 8.265625 -17.9375 C 8.035156 -17.613281 7.78125 -17.273438 7.5 -16.921875 C 7.394531 -16.742188 7.25 -16.546875 7.0625 -16.328125 C 9.601562 -12.660156 11.847656 -10.144531 13.796875 -8.78125 C 15.742188 -7.414062 17.441406 -6.8125 18.890625 -6.96875 C 20.335938 -7.132812 21.570312 -7.660156 22.59375 -8.546875 C 23.613281 -9.441406 24.441406 -10.335938 25.078125 -11.234375 C 25.765625 -12.128906 26.269531 -12.578125 26.59375 -12.578125 C 27.09375 -12.429688 27.1875 -12.046875 26.875 -11.421875 C 26.570312 -10.796875 26.117188 -10.109375 25.515625 -9.359375 Z M 4.65625 -20.578125 C 4.507812 -19.535156 4.535156 -18.867188 4.734375 -18.578125 C 4.941406 -18.296875 5.40625 -18.660156 6.125 -19.671875 C 7.226562 -21.203125 8.597656 -23.269531 10.234375 -25.875 C 11.878906 -28.476562 13.59375 -31.363281 15.375 -34.53125 C 17.164062 -37.707031 18.773438 -40.921875 20.203125 -44.171875 C 21.640625 -47.421875 22.675781 -50.457031 23.3125 -53.28125 C 23.957031 -56.113281 23.992188 -58.472656 23.421875 -60.359375 C 23.148438 -61.148438 22.65625 -61.632812 21.9375 -61.8125 C 21.21875 -61.988281 20.445312 -61.859375 19.625 -61.421875 C 17.863281 -60.429688 16.253906 -58.664062 14.796875 -56.125 C 13.335938 -53.582031 12.023438 -50.640625 10.859375 -47.296875 C 9.691406 -43.960938 8.675781 -40.550781 7.8125 -37.0625 C 6.957031 -33.570312 6.257812 -30.367188 5.71875 -27.453125 C 5.1875 -24.535156 4.832031 -22.242188 4.65625 -20.578125 Z M 5.90625 1.40625 C 6.53125 3.882812 7.085938 5.648438 7.578125 6.703125 C 8.066406 7.753906 8.390625 7.847656 8.546875 6.984375 C 8.710938 6.128906 8.664062 4.078125 8.40625 0.828125 C 8.195312 -1.671875 7.785156 -4.3125 7.171875 -7.09375 C 6.566406 -9.882812 5.742188 -12.128906 4.703125 -13.828125 C 4.316406 -12.128906 4.25 -9.789062 4.5 -6.8125 C 4.75 -3.832031 5.21875 -1.09375 5.90625 1.40625 Z M 5.90625 1.40625 "/></g></g></g><g fill="#253439" fill-opacity="1"><g transform="translate(144.360838, 108.767145)"><g><path d="M 25.203125 -12.265625 C 25.554688 -12.234375 25.492188 -11.738281 25.015625 -10.78125 C 24.535156 -9.832031 23.75 -8.738281 22.65625 -7.5 C 21.5625 -6.269531 20.332031 -5.207031 18.96875 -4.3125 C 17.613281 -3.414062 16.265625 -3.007812 14.921875 -3.09375 C 13.910156 -3.1875 13.164062 -3.484375 12.6875 -3.984375 C 12.207031 -4.492188 11.878906 -5.050781 11.703125 -5.65625 C 11.523438 -6.269531 11.410156 -6.804688 11.359375 -7.265625 C 11.328125 -7.585938 11.285156 -7.828125 11.234375 -7.984375 C 11.191406 -8.148438 11.09375 -8.160156 10.9375 -8.015625 C 9.90625 -5.628906 8.101562 -4.4375 5.53125 -4.4375 C 4.101562 -4.4375 2.941406 -5.066406 2.046875 -6.328125 C 1.148438 -7.597656 0.582031 -9.1875 0.34375 -11.09375 C 0.113281 -13.007812 0.300781 -14.953125 0.90625 -16.921875 C 1.050781 -17.566406 1.445312 -18.007812 2.09375 -18.25 C 2.550781 -18.4375 3.019531 -18.421875 3.5 -18.203125 C 3.988281 -17.992188 4.253906 -17.679688 4.296875 -17.265625 C 4.296875 -16.816406 4.257812 -16.382812 4.1875 -15.96875 C 4.113281 -15.644531 4.054688 -15.335938 4.015625 -15.046875 C 3.953125 -13.867188 3.972656 -12.582031 4.078125 -11.1875 C 4.179688 -9.789062 4.550781 -8.597656 5.1875 -7.609375 C 5.8125 -6.804688 6.492188 -6.703125 7.234375 -7.296875 C 7.984375 -7.890625 8.644531 -8.8125 9.21875 -10.0625 C 9.65625 -11.050781 10 -12.035156 10.25 -13.015625 C 10.5 -14.003906 10.65625 -14.769531 10.71875 -15.3125 C 10.789062 -15.539062 10.828125 -15.6875 10.828125 -15.75 C 10.941406 -16.164062 11.054688 -16.578125 11.171875 -16.984375 C 11.347656 -17.585938 11.523438 -18.175781 11.703125 -18.75 C 12.003906 -19.851562 12.785156 -20.316406 14.046875 -20.140625 C 14.804688 -20.066406 15.21875 -19.691406 15.28125 -19.015625 C 15.34375 -18.085938 15.359375 -17.160156 15.328125 -16.234375 C 15.296875 -15.253906 15.25 -14.300781 15.1875 -13.375 C 15.101562 -12.03125 15.046875 -10.691406 15.015625 -9.359375 C 14.984375 -7.421875 15.367188 -6.296875 16.171875 -5.984375 C 16.972656 -5.671875 17.953125 -5.878906 19.109375 -6.609375 C 20.273438 -7.335938 21.394531 -8.328125 22.46875 -9.578125 C 22.570312 -9.691406 22.695312 -9.835938 22.84375 -10.015625 C 23.050781 -10.296875 23.304688 -10.601562 23.609375 -10.9375 C 23.921875 -11.28125 24.21875 -11.578125 24.5 -11.828125 C 24.789062 -12.085938 25.023438 -12.234375 25.203125 -12.265625 Z M 25.203125 -12.265625 "/></g></g></g><g fill="#253439" fill-opacity="1"><g transform="translate(168.128943, 108.767145)"><g><path d="M 17.59375 -11.359375 C 17.875 -12.023438 18.175781 -12.359375 18.5 -12.359375 C 18.820312 -12.359375 18.925781 -12.023438 18.8125 -11.359375 C 18.28125 -9.703125 17.640625 -8.113281 16.890625 -6.59375 C 16.140625 -5.070312 15.125 -3.710938 13.84375 -2.515625 C 12.875 -1.535156 11.710938 -0.910156 10.359375 -0.640625 C 8.523438 -0.378906 7.007812 -0.597656 5.8125 -1.296875 C 4.613281 -1.992188 3.664062 -2.992188 2.96875 -4.296875 C 2.269531 -5.609375 1.75 -7.039062 1.40625 -8.59375 C 1.070312 -10.144531 0.851562 -11.648438 0.75 -13.109375 C 0.488281 -15.878906 0.296875 -19.515625 0.171875 -24.015625 C 0.0546875 -28.515625 0.101562 -33.273438 0.3125 -38.296875 C 0.53125 -43.316406 1.023438 -47.972656 1.796875 -52.265625 C 2.566406 -56.554688 3.695312 -59.878906 5.1875 -62.234375 C 6.050781 -63.390625 7.054688 -63.972656 8.203125 -63.984375 C 9.347656 -64.003906 10.367188 -63.476562 11.265625 -62.40625 C 11.859375 -61.570312 12.3125 -60.691406 12.625 -59.765625 C 12.9375 -58.835938 13.140625 -57.894531 13.234375 -56.9375 C 13.554688 -53.644531 13.515625 -50.164062 13.109375 -46.5 C 12.703125 -42.832031 12.0625 -38.914062 11.1875 -34.75 C 10.3125 -30.59375 9.265625 -26.929688 8.046875 -23.765625 C 6.828125 -20.597656 5.8125 -18.085938 5 -16.234375 C 4.5625 -15.484375 4.398438 -14.351562 4.515625 -12.84375 C 4.660156 -11.207031 4.972656 -9.492188 5.453125 -7.703125 C 5.929688 -5.910156 6.597656 -4.5 7.453125 -3.46875 C 8.265625 -2.601562 9.175781 -2.332031 10.1875 -2.65625 C 11.195312 -2.976562 12.203125 -3.660156 13.203125 -4.703125 C 14.203125 -5.742188 15.082031 -6.878906 15.84375 -8.109375 C 16.601562 -9.335938 17.1875 -10.421875 17.59375 -11.359375 Z M 4.609375 -36.296875 C 4.503906 -35.222656 4.40625 -33.597656 4.3125 -31.421875 C 4.226562 -29.253906 4.148438 -27.050781 4.078125 -24.8125 C 4.003906 -22.3125 3.925781 -20.363281 3.84375 -18.96875 C 4.644531 -20.75 5.570312 -23.347656 6.625 -26.765625 C 7.6875 -30.179688 8.648438 -34.203125 9.515625 -38.828125 C 10.390625 -43.460938 10.957031 -48.476562 11.21875 -53.875 C 11.070312 -57.019531 10.691406 -59.15625 10.078125 -60.28125 C 9.472656 -61.40625 8.8125 -61.503906 8.09375 -60.578125 C 7.375 -59.648438 6.804688 -57.695312 6.390625 -54.71875 C 5.734375 -49.800781 5.226562 -44.867188 4.875 -39.921875 C 4.78125 -38.703125 4.691406 -37.492188 4.609375 -36.296875 Z M 4.609375 -36.296875 "/></g></g></g><g fill="#253439" fill-opacity="1"><g transform="translate(185.461376, 108.767145)"><g><path d="M 17.59375 -11.359375 C 17.875 -12.023438 18.175781 -12.359375 18.5 -12.359375 C 18.820312 -12.359375 18.925781 -12.023438 18.8125 -11.359375 C 18.28125 -9.703125 17.640625 -8.113281 16.890625 -6.59375 C 16.140625 -5.070312 15.125 -3.710938 13.84375 -2.515625 C 12.875 -1.535156 11.710938 -0.910156 10.359375 -0.640625 C 8.523438 -0.378906 7.007812 -0.597656 5.8125 -1.296875 C 4.613281 -1.992188 3.664062 -2.992188 2.96875 -4.296875 C 2.269531 -5.609375 1.75 -7.039062 1.40625 -8.59375 C 1.070312 -10.144531 0.851562 -11.648438 0.75 -13.109375 C 0.488281 -15.878906 0.296875 -19.515625 0.171875 -24.015625 C 0.0546875 -28.515625 0.101562 -33.273438 0.3125 -38.296875 C 0.53125 -43.316406 1.023438 -47.972656 1.796875 -52.265625 C 2.566406 -56.554688 3.695312 -59.878906 5.1875 -62.234375 C 6.050781 -63.390625 7.054688 -63.972656 8.203125 -63.984375 C 9.347656 -64.003906 10.367188 -63.476562 11.265625 -62.40625 C 11.859375 -61.570312 12.3125 -60.691406 12.625 -59.765625 C 12.9375 -58.835938 13.140625 -57.894531 13.234375 -56.9375 C 13.554688 -53.644531 13.515625 -50.164062 13.109375 -46.5 C 12.703125 -42.832031 12.0625 -38.914062 11.1875 -34.75 C 10.3125 -30.59375 9.265625 -26.929688 8.046875 -23.765625 C 6.828125 -20.597656 5.8125 -18.085938 5 -16.234375 C 4.5625 -15.484375 4.398438 -14.351562 4.515625 -12.84375 C 4.660156 -11.207031 4.972656 -9.492188 5.453125 -7.703125 C 5.929688 -5.910156 6.597656 -4.5 7.453125 -3.46875 C 8.265625 -2.601562 9.175781 -2.332031 10.1875 -2.65625 C 11.195312 -2.976562 12.203125 -3.660156 13.203125 -4.703125 C 14.203125 -5.742188 15.082031 -6.878906 15.84375 -8.109375 C 16.601562 -9.335938 17.1875 -10.421875 17.59375 -11.359375 Z M 4.609375 -36.296875 C 4.503906 -35.222656 4.40625 -33.597656 4.3125 -31.421875 C 4.226562 -29.253906 4.148438 -27.050781 4.078125 -24.8125 C 4.003906 -22.3125 3.925781 -20.363281 3.84375 -18.96875 C 4.644531 -20.75 5.570312 -23.347656 6.625 -26.765625 C 7.6875 -30.179688 8.648438 -34.203125 9.515625 -38.828125 C 10.390625 -43.460938 10.957031 -48.476562 11.21875 -53.875 C 11.070312 -57.019531 10.691406 -59.15625 10.078125 -60.28125 C 9.472656 -61.40625 8.8125 -61.503906 8.09375 -60.578125 C 7.375 -59.648438 6.804688 -57.695312 6.390625 -54.71875 C 5.734375 -49.800781 5.226562 -44.867188 4.875 -39.921875 C 4.78125 -38.703125 4.691406 -37.492188 4.609375 -36.296875 Z M 4.609375 -36.296875 "/></g></g></g><g fill="#253439" fill-opacity="1"><g transform="translate(202.793797, 108.767145)"><g><path d="M 27.578125 -12.53125 C 27.128906 -11.164062 26.242188 -9.597656 24.921875 -7.828125 C 23.597656 -6.066406 21.941406 -4.9375 19.953125 -4.4375 C 17.972656 -3.9375 16.257812 -4.003906 14.8125 -4.640625 C 13.375 -5.285156 12.582031 -7.003906 12.4375 -9.796875 C 10.789062 -6.609375 9.222656 -4.566406 7.734375 -3.671875 C 6.253906 -2.785156 4.707031 -2.445312 3.09375 -2.65625 C 1.269531 -2.945312 0.0390625 -3.648438 -0.59375 -4.765625 C -1.238281 -5.890625 -1.453125 -7.1875 -1.234375 -8.65625 C -1.023438 -10.132812 -0.582031 -11.546875 0.09375 -12.890625 C 0.632812 -13.898438 1.378906 -14.832031 2.328125 -15.6875 C 3.273438 -16.550781 4.269531 -17.226562 5.3125 -17.71875 C 6.59375 -18.375 7.882812 -18.679688 9.1875 -18.640625 C 10.488281 -18.609375 11.878906 -18.179688 13.359375 -17.359375 C 13.390625 -17.328125 13.40625 -17.359375 13.40625 -17.453125 C 13.40625 -17.597656 13.441406 -17.78125 13.515625 -18 C 13.585938 -18.21875 13.710938 -18.394531 13.890625 -18.53125 C 14.378906 -18.882812 14.957031 -19.0625 15.625 -19.0625 C 16.289062 -19.0625 16.800781 -18.726562 17.15625 -18.0625 C 17.226562 -17.195312 17.140625 -16.097656 16.890625 -14.765625 C 16.359375 -11.847656 16.359375 -9.742188 16.890625 -8.453125 C 17.429688 -7.171875 18.378906 -6.570312 19.734375 -6.65625 C 21.085938 -6.75 22.84375 -8.09375 25 -10.6875 C 27.164062 -13.28125 28.023438 -13.894531 27.578125 -12.53125 Z M 3.578125 -5.65625 C 4.328125 -5.113281 5.1875 -5.179688 6.15625 -5.859375 C 7.125 -6.546875 8.050781 -7.515625 8.9375 -8.765625 C 9.832031 -10.023438 10.582031 -11.28125 11.1875 -12.53125 C 11.800781 -13.78125 12.144531 -14.707031 12.21875 -15.3125 C 10.394531 -16.28125 8.832031 -16.441406 7.53125 -15.796875 C 6.226562 -15.160156 5.191406 -14.113281 4.421875 -12.65625 C 3.648438 -11.207031 3.191406 -9.796875 3.046875 -8.421875 C 2.898438 -7.046875 3.078125 -6.125 3.578125 -5.65625 Z M 3.578125 -5.65625 "/></g></g></g><g fill="#253439" fill-opacity="1"><g transform="translate(228.633992, 108.767145)"><g><path d="M 23.875 -11.828125 C 25.257812 -13.367188 25.988281 -13.957031 26.0625 -13.59375 C 26.144531 -13.238281 25.851562 -12.40625 25.1875 -11.09375 C 24.519531 -9.789062 23.484375 -8.675781 22.078125 -7.75 C 21.054688 -7.113281 20.175781 -6.6875 19.4375 -6.46875 C 18.695312 -6.25 18.023438 -6.125 17.421875 -6.09375 C 16.242188 -6.03125 15.335938 -6.367188 14.703125 -7.109375 C 14.078125 -7.859375 13.644531 -8.820312 13.40625 -10 C 13.164062 -11.1875 12.988281 -12.40625 12.875 -13.65625 C 12.757812 -14.445312 12.648438 -15.160156 12.546875 -15.796875 C 12.398438 -16.804688 12.113281 -17.363281 11.6875 -17.46875 C 11.257812 -17.570312 10.597656 -16.925781 9.703125 -15.53125 C 8.773438 -14.03125 7.960938 -12.378906 7.265625 -10.578125 C 6.566406 -8.773438 5.945312 -7.015625 5.40625 -5.296875 C 5.375 -5.222656 5.34375 -5.128906 5.3125 -5.015625 C 5.195312 -4.773438 5.109375 -4.523438 5.046875 -4.265625 C 4.835938 -3.546875 4.585938 -2.847656 4.296875 -2.171875 C 4.046875 -1.597656 3.625 -1.222656 3.03125 -1.046875 C 2.4375 -0.867188 1.816406 -0.910156 1.171875 -1.171875 C 0.742188 -1.347656 0.457031 -1.648438 0.3125 -2.078125 C 0.101562 -2.722656 0.03125 -3.378906 0.09375 -4.046875 C 0.09375 -4.128906 0.09375 -4.1875 0.09375 -4.21875 C 0.238281 -7.039062 0.265625 -11.742188 0.171875 -18.328125 C 0.0859375 -23.578125 0.046875 -29.222656 0.046875 -35.265625 C 0.046875 -41.316406 0.195312 -47.019531 0.5 -52.375 C 0.8125 -57.738281 1.34375 -62.03125 2.09375 -65.25 C 2.414062 -66.425781 2.953125 -67.476562 3.703125 -68.40625 C 4.453125 -69.34375 5.28125 -69.851562 6.1875 -69.9375 C 7.101562 -70.03125 7.957031 -69.410156 8.75 -68.078125 C 9.289062 -66.941406 9.625 -65.734375 9.75 -64.453125 C 10.101562 -60.648438 9.78125 -54.804688 8.78125 -46.921875 C 7.78125 -39.035156 6.734375 -32.132812 5.640625 -26.21875 C 4.554688 -20.3125 4.015625 -15.375 4.015625 -11.40625 C 4.378906 -12.007812 4.738281 -12.648438 5.09375 -13.328125 C 5.59375 -14.335938 6.15625 -15.34375 6.78125 -16.34375 C 7.414062 -17.34375 8.15625 -18.191406 9 -18.890625 C 9.851562 -19.585938 10.890625 -20.023438 12.109375 -20.203125 C 12.941406 -20.335938 13.785156 -20.28125 14.640625 -20.03125 C 15.492188 -19.789062 16.066406 -19.195312 16.359375 -18.25 C 16.710938 -16.613281 16.832031 -14.867188 16.71875 -13.015625 C 16.71875 -11.046875 17.054688 -9.800781 17.734375 -9.28125 C 18.421875 -8.757812 19.269531 -8.671875 20.28125 -9.015625 C 21.300781 -9.359375 22.5 -10.296875 23.875 -11.828125 Z M 5.671875 -62.234375 C 5.492188 -60.203125 5.289062 -56.804688 5.0625 -52.046875 C 4.84375 -47.296875 4.648438 -42.53125 4.484375 -37.75 C 4.316406 -32.976562 4.234375 -29.007812 4.234375 -25.84375 C 4.628906 -28.695312 5.101562 -32.421875 5.65625 -37.015625 C 6.207031 -41.609375 6.695312 -46.332031 7.125 -51.1875 C 7.5625 -56.050781 7.78125 -59.703125 7.78125 -62.140625 C 7.75 -63.421875 7.65625 -64.375 7.5 -65 C 7.351562 -65.625 7.109375 -65.847656 6.765625 -65.671875 C 6.429688 -65.492188 6.175781 -65.035156 6 -64.296875 C 5.820312 -63.566406 5.710938 -62.878906 5.671875 -62.234375 Z M 5.671875 -62.234375 "/></g></g></g><g fill="#253439" fill-opacity="1"><g transform="translate(136.696484, 134.651347)"><g><path d="M 7.21875 -17.46875 L 7.71875 -17.46875 L 14.171875 0 L 12.21875 0 L 10.625 -4.453125 L 4.203125 -4.453125 L 2.609375 0 L 0.765625 0 Z M 10.046875 -6.09375 L 7.421875 -13.4375 L 4.78125 -6.09375 Z M 10.046875 -6.09375 "/></g></g></g><g fill="#253439" fill-opacity="1"><g transform="translate(154.293369, 134.651347)"><g><path d="M 1.765625 -17.96875 L 3.421875 -17.96875 L 3.421875 0 L 1.765625 0 Z M 1.765625 -17.96875 "/></g></g></g><g fill="#253439" fill-opacity="1"><g transform="translate(162.142564, 134.651347)"><g/></g></g><g fill="#253439" fill-opacity="1"><g transform="translate(170.371541, 134.651347)"><g><path d="M 6.328125 -15.3125 L 0.765625 -15.3125 L 0.765625 -16.953125 L 13.671875 -16.953125 L 13.671875 -15.3125 L 8.09375 -15.3125 L 8.09375 0 L 6.328125 0 Z M 6.328125 -15.3125 "/></g></g></g><g fill="#253439" fill-opacity="1"><g transform="translate(187.46205, 134.651347)"><g><path d="M 4.96875 0.25 C 4.375 0.25 3.828125 0.160156 3.328125 -0.015625 C 2.828125 -0.191406 2.394531 -0.4375 2.03125 -0.75 C 1.675781 -1.070312 1.394531 -1.457031 1.1875 -1.90625 C 0.988281 -2.351562 0.890625 -2.835938 0.890625 -3.359375 C 0.890625 -3.921875 1 -4.425781 1.21875 -4.875 C 1.445312 -5.332031 1.765625 -5.726562 2.171875 -6.0625 C 2.578125 -6.40625 3.050781 -6.671875 3.59375 -6.859375 C 4.144531 -7.046875 4.742188 -7.140625 5.390625 -7.140625 C 6.097656 -7.140625 6.722656 -7.066406 7.265625 -6.921875 C 7.804688 -6.773438 8.335938 -6.546875 8.859375 -6.234375 L 8.859375 -6.953125 C 8.859375 -8.003906 8.570312 -8.84375 8 -9.46875 C 7.4375 -10.101562 6.691406 -10.421875 5.765625 -10.421875 C 4.566406 -10.421875 3.585938 -9.898438 2.828125 -8.859375 L 1.625 -9.875 C 2.175781 -10.53125 2.8125 -11.03125 3.53125 -11.375 C 4.257812 -11.71875 5.03125 -11.890625 5.84375 -11.890625 C 6.519531 -11.890625 7.144531 -11.769531 7.71875 -11.53125 C 8.289062 -11.300781 8.785156 -10.972656 9.203125 -10.546875 C 9.617188 -10.128906 9.9375 -9.628906 10.15625 -9.046875 C 10.382812 -8.460938 10.5 -7.832031 10.5 -7.15625 L 10.5 0 L 8.859375 0 L 8.859375 -1.828125 C 8.367188 -1.117188 7.796875 -0.59375 7.140625 -0.25 C 6.484375 0.0820312 5.757812 0.25 4.96875 0.25 Z M 5.265625 -1.21875 C 5.785156 -1.21875 6.265625 -1.300781 6.703125 -1.46875 C 7.140625 -1.632812 7.519531 -1.863281 7.84375 -2.15625 C 8.164062 -2.457031 8.414062 -2.816406 8.59375 -3.234375 C 8.769531 -3.660156 8.859375 -4.125 8.859375 -4.625 C 8.304688 -5.019531 7.757812 -5.304688 7.21875 -5.484375 C 6.6875 -5.660156 6.0625 -5.75 5.34375 -5.75 C 4.476562 -5.75 3.789062 -5.539062 3.28125 -5.125 C 2.78125 -4.707031 2.53125 -4.144531 2.53125 -3.4375 C 2.53125 -2.75 2.773438 -2.207031 3.265625 -1.8125 C 3.753906 -1.414062 4.421875 -1.21875 5.265625 -1.21875 Z M 5.265625 -1.21875 "/></g></g></g><g fill="#253439" fill-opacity="1"><g transform="translate(202.273882, 134.651347)"><g><path d="M 1.765625 -17.96875 L 3.421875 -17.96875 L 3.421875 -9.84375 C 4.347656 -11.207031 5.550781 -11.890625 7.03125 -11.890625 C 7.65625 -11.890625 8.238281 -11.769531 8.78125 -11.53125 C 9.320312 -11.300781 9.78125 -10.972656 10.15625 -10.546875 C 10.539062 -10.128906 10.84375 -9.628906 11.0625 -9.046875 C 11.28125 -8.460938 11.390625 -7.832031 11.390625 -7.15625 L 11.390625 0 L 9.75 0 L 9.75 -6.9375 C 9.75 -8 9.460938 -8.835938 8.890625 -9.453125 C 8.328125 -10.066406 7.566406 -10.375 6.609375 -10.375 C 5.640625 -10.375 4.863281 -10.054688 4.28125 -9.421875 C 3.707031 -8.796875 3.421875 -7.96875 3.421875 -6.9375 L 3.421875 0 L 1.765625 0 Z M 1.765625 -17.96875 "/></g></g></g><g fill="#253439" fill-opacity="1"><g transform="translate(217.971872, 134.651347)"><g><path d="M 7.140625 0.25 C 6.242188 0.25 5.425781 0.0976562 4.6875 -0.203125 C 3.957031 -0.503906 3.332031 -0.925781 2.8125 -1.46875 C 2.289062 -2.007812 1.878906 -2.648438 1.578125 -3.390625 C 1.285156 -4.128906 1.140625 -4.941406 1.140625 -5.828125 C 1.140625 -6.703125 1.28125 -7.507812 1.5625 -8.25 C 1.851562 -8.988281 2.25 -9.628906 2.75 -10.171875 C 3.257812 -10.710938 3.863281 -11.132812 4.5625 -11.4375 C 5.269531 -11.738281 6.046875 -11.890625 6.890625 -11.890625 C 7.679688 -11.890625 8.410156 -11.75 9.078125 -11.46875 C 9.753906 -11.195312 10.335938 -10.816406 10.828125 -10.328125 C 11.316406 -9.835938 11.703125 -9.242188 11.984375 -8.546875 C 12.265625 -7.859375 12.40625 -7.101562 12.40625 -6.28125 C 12.40625 -5.9375 12.378906 -5.628906 12.328125 -5.359375 L 2.890625 -5.359375 C 2.984375 -4.097656 3.421875 -3.109375 4.203125 -2.390625 C 4.992188 -1.671875 6.003906 -1.3125 7.234375 -1.3125 C 8.773438 -1.3125 10.0625 -1.90625 11.09375 -3.09375 L 12.15625 -2.203125 C 11.539062 -1.390625 10.800781 -0.773438 9.9375 -0.359375 C 9.082031 0.046875 8.148438 0.25 7.140625 0.25 Z M 10.625 -6.828125 C 10.488281 -7.941406 10.078125 -8.800781 9.390625 -9.40625 C 8.710938 -10.019531 7.859375 -10.328125 6.828125 -10.328125 C 5.765625 -10.328125 4.890625 -10.007812 4.203125 -9.375 C 3.523438 -8.738281 3.101562 -7.890625 2.9375 -6.828125 Z M 10.625 -6.828125 "/></g></g></g><g fill="#253439" fill-opacity="1"><g transform="translate(234.049633, 134.651347)"><g><path d="M 1.765625 -11.640625 L 3.421875 -11.640625 L 3.421875 -9.875 C 4.316406 -11.21875 5.445312 -11.890625 6.8125 -11.890625 C 6.945312 -11.890625 7.070312 -11.882812 7.1875 -11.875 C 7.300781 -11.875 7.40625 -11.863281 7.5 -11.84375 L 7.15625 -10 C 6.957031 -10.050781 6.734375 -10.078125 6.484375 -10.078125 C 5.566406 -10.078125 4.828125 -9.796875 4.265625 -9.234375 C 3.703125 -8.679688 3.421875 -7.914062 3.421875 -6.9375 L 3.421875 0 L 1.765625 0 Z M 1.765625 -11.640625 "/></g></g></g><g fill="#253439" fill-opacity="1"><g transform="translate(244.582609, 134.651347)"><g><path d="M 1.765625 -11.640625 L 3.421875 -11.640625 L 3.421875 0 L 1.765625 0 Z M 2.578125 -14.015625 C 2.242188 -14.015625 1.960938 -14.132812 1.734375 -14.375 C 1.503906 -14.613281 1.390625 -14.898438 1.390625 -15.234375 C 1.390625 -15.578125 1.503906 -15.863281 1.734375 -16.09375 C 1.972656 -16.332031 2.265625 -16.453125 2.609375 -16.453125 C 2.941406 -16.453125 3.222656 -16.332031 3.453125 -16.09375 C 3.679688 -15.863281 3.796875 -15.578125 3.796875 -15.234375 C 3.796875 -14.898438 3.675781 -14.613281 3.4375 -14.375 C 3.207031 -14.132812 2.921875 -14.015625 2.578125 -14.015625 Z M 2.578125 -14.015625 "/></g></g></g></svg>